<?xml version="1.0" encoding="utf-8"?>
<!-- Generator: Adobe Illustrator 15.0.0, SVG Export Plug-In . SVG Version: 6.00 Build 0)  -->
<!DOCTYPE svg PUBLIC "-//W3C//DTD SVG 1.1//EN" "http://www.w3.org/Graphics/SVG/1.1/DTD/svg11.dtd">
<svg version="1.1" id="Ebene_1" xmlns="http://www.w3.org/2000/svg" xmlns:xlink="http://www.w3.org/1999/xlink" x="0px" y="0px"
	 width="841.89px" height="1190.55px" viewBox="0 0 841.89 1190.55" enable-background="new 0 0 841.89 1190.55"
	 xml:space="preserve">
<g>
	<path d="M306.786,280.9h5.292v19.008h10.44v4.464h-15.732V280.9z"/>
	<path d="M338.79,298.792h-7.092l-1.44,5.58h-5.4l7.308-23.472h6.336l7.308,23.472h-5.616L338.79,298.792z M337.709,294.652
		l-0.54-2.16c-0.313-1.176-0.625-2.424-0.936-3.744c-0.313-1.32-0.625-2.592-0.936-3.816h-0.144c-0.288,1.248-0.588,2.526-0.9,3.834
		c-0.313,1.308-0.625,2.55-0.936,3.726l-0.54,2.16H337.709z"/>
	<path d="M347.717,292.78c0-1.968,0.282-3.714,0.846-5.238c0.563-1.524,1.332-2.808,2.304-3.852
		c0.972-1.044,2.118-1.841,3.438-2.394c1.32-0.552,2.736-0.828,4.248-0.828c1.584,0,2.934,0.306,4.05,0.918
		c1.116,0.612,2.058,1.302,2.826,2.07l-2.916,3.276c-0.504-0.504-1.056-0.912-1.656-1.224c-0.6-0.312-1.368-0.468-2.304-0.468
		c-0.768,0-1.476,0.174-2.124,0.522c-0.648,0.348-1.212,0.846-1.692,1.494c-0.48,0.648-0.858,1.44-1.134,2.376
		c-0.276,0.936-0.414,1.992-0.414,3.168c0,2.424,0.461,4.302,1.386,5.634c0.924,1.332,2.322,1.998,4.194,1.998
		c0.456,0,0.887-0.06,1.296-0.18c0.408-0.12,0.744-0.3,1.008-0.54v-4.032h-3.42v-4.32h8.172v10.8
		c-0.792,0.744-1.836,1.404-3.132,1.98c-1.296,0.576-2.7,0.864-4.212,0.864c-1.512,0-2.922-0.258-4.23-0.774
		c-1.309-0.516-2.448-1.278-3.42-2.286c-0.972-1.008-1.734-2.262-2.286-3.762C347.993,296.482,347.717,294.748,347.717,292.78z"/>
	<path d="M371.117,280.9h15.48v4.464h-10.188v4.716h8.64v4.428h-8.64v5.4h10.548v4.464h-15.84V280.9z"/>
	<path d="M394.193,297.784c0.888,0.72,1.854,1.308,2.898,1.764c1.044,0.457,2.082,0.684,3.114,0.684
		c1.224,0,2.118-0.204,2.682-0.612c0.563-0.408,0.846-0.959,0.846-1.656c0-0.36-0.084-0.671-0.252-0.936
		c-0.168-0.264-0.408-0.498-0.72-0.702c-0.313-0.204-0.69-0.396-1.134-0.576c-0.444-0.18-0.954-0.378-1.53-0.594l-3.024-1.296
		c-0.648-0.239-1.278-0.552-1.89-0.936c-0.612-0.383-1.146-0.833-1.602-1.35c-0.456-0.516-0.822-1.116-1.098-1.8
		s-0.414-1.458-0.414-2.322c0-0.959,0.21-1.866,0.63-2.718c0.419-0.852,1.008-1.596,1.764-2.232
		c0.756-0.636,1.662-1.134,2.718-1.494c1.056-0.36,2.219-0.54,3.492-0.54c1.44,0,2.832,0.264,4.176,0.792
		c1.344,0.528,2.556,1.296,3.636,2.304l-2.7,3.348c-0.816-0.6-1.62-1.062-2.412-1.386c-0.792-0.324-1.692-0.486-2.7-0.486
		c-1.032,0-1.83,0.186-2.394,0.558s-0.846,0.895-0.846,1.566c0,0.72,0.36,1.26,1.08,1.62c0.72,0.36,1.644,0.744,2.772,1.152
		l2.844,1.224c1.56,0.576,2.79,1.368,3.69,2.376c0.9,1.008,1.35,2.34,1.35,3.996c0,0.984-0.204,1.914-0.612,2.79
		c-0.409,0.876-0.996,1.644-1.764,2.304c-0.769,0.661-1.716,1.188-2.844,1.584c-1.128,0.396-2.425,0.594-3.888,0.594
		c-1.584,0-3.15-0.283-4.698-0.846c-1.548-0.563-2.958-1.41-4.23-2.538L394.193,297.784z"/>
	<path d="M421.732,304.804c-1.392,0-2.67-0.283-3.834-0.846s-2.16-1.374-2.988-2.43c-0.828-1.056-1.47-2.34-1.926-3.852
		c-0.456-1.512-0.684-3.228-0.684-5.148c0-1.919,0.228-3.629,0.684-5.13c0.456-1.5,1.098-2.759,1.926-3.78
		c0.828-1.02,1.824-1.8,2.988-2.34c1.164-0.54,2.442-0.81,3.834-0.81c1.392,0,2.67,0.27,3.834,0.81
		c1.164,0.54,2.16,1.327,2.988,2.358c0.828,1.032,1.47,2.298,1.926,3.798c0.455,1.5,0.684,3.198,0.684,5.094
		c0,1.92-0.229,3.636-0.684,5.148c-0.456,1.512-1.098,2.796-1.926,3.852c-0.828,1.057-1.824,1.867-2.988,2.43
		S423.124,304.804,421.732,304.804z M421.732,300.232c1.225,0,2.196-0.689,2.916-2.07c0.721-1.38,1.08-3.258,1.08-5.634
		c0-2.352-0.359-4.188-1.08-5.508c-0.72-1.319-1.691-1.98-2.916-1.98c-1.224,0-2.196,0.661-2.916,1.98
		c-0.72,1.32-1.08,3.156-1.08,5.508c0,2.376,0.36,4.254,1.08,5.634C419.537,299.542,420.509,300.232,421.732,300.232z"/>
	<path d="M305.922,313.756h3.06l7.668,14.904l2.376,4.824h0.072c-0.048-1.175-0.126-2.406-0.234-3.69
		c-0.108-1.284-0.162-2.55-0.162-3.798v-12.24h2.844v23.616h-3.06l-7.668-14.904l-2.376-4.824h-0.072
		c0.048,1.224,0.126,2.454,0.234,3.69c0.108,1.236,0.162,2.466,0.162,3.69v12.348h-2.844V313.756z"/>
	<path d="M327.378,313.756h3.024v14.76c0,1.224,0.126,2.262,0.378,3.114c0.252,0.853,0.6,1.536,1.044,2.052
		c0.444,0.516,0.966,0.895,1.566,1.134c0.6,0.24,1.26,0.36,1.98,0.36c0.72,0,1.38-0.12,1.98-0.36c0.6-0.239,1.128-0.618,1.584-1.134
		c0.456-0.516,0.81-1.2,1.062-2.052c0.252-0.852,0.378-1.89,0.378-3.114v-14.76h2.916v14.688c0,1.705-0.198,3.145-0.594,4.32
		c-0.396,1.176-0.942,2.142-1.638,2.898c-0.696,0.756-1.53,1.302-2.502,1.638c-0.972,0.335-2.034,0.504-3.186,0.504
		s-2.22-0.168-3.204-0.504c-0.984-0.336-1.83-0.882-2.538-1.638c-0.708-0.756-1.26-1.722-1.656-2.898
		c-0.396-1.176-0.594-2.616-0.594-4.32V313.756z"/>
	<path d="M349.049,313.756h3.312l3.348,10.044l1.188,3.816h0.144l1.152-3.816l3.312-10.044h3.312v23.616h-2.556v-13.284
		c0-0.479,0.012-1.044,0.036-1.692c0.023-0.648,0.054-1.302,0.09-1.962c0.036-0.66,0.072-1.308,0.108-1.944
		c0.036-0.636,0.078-1.194,0.126-1.674h-0.108l-1.548,5.04l-3.24,9.108h-1.62l-3.24-9.108l-1.584-5.04h-0.108
		c0.023,0.48,0.06,1.039,0.108,1.674c0.048,0.636,0.096,1.284,0.144,1.944c0.048,0.66,0.084,1.314,0.108,1.962
		s0.036,1.212,0.036,1.692v13.284h-2.52V313.756z"/>
	<path d="M373.709,330.028h-2.844v-2.052h3.096l0.684-5.328h-3.06v-2.088h3.276l0.864-6.588h1.908l-0.828,6.588h4.752l0.864-6.588
		h1.908l-0.828,6.588h2.916v2.088h-3.132l-0.684,5.328h3.096v2.052h-3.348l-0.864,7.344h-1.944l0.9-7.344h-4.788l-0.864,7.344
		h-1.944L373.709,330.028z M380.657,327.976l0.684-5.328h-4.788l-0.648,5.328H380.657z"/>
	<path d="M395.309,330.028h-2.844v-2.052h3.096l0.684-5.328h-3.06v-2.088h3.276l0.864-6.588h1.908l-0.828,6.588h4.752l0.864-6.588
		h1.908l-0.828,6.588h2.916v2.088h-3.132l-0.684,5.328h3.096v2.052h-3.348l-0.864,7.344h-1.944l0.9-7.344h-4.788l-0.864,7.344
		h-1.944L395.309,330.028z M402.257,327.976l0.684-5.328h-4.788l-0.648,5.328H402.257z"/>
	<path d="M416.909,330.028h-2.844v-2.052h3.096l0.684-5.328h-3.06v-2.088h3.276l0.864-6.588h1.908l-0.828,6.588h4.752l0.864-6.588
		h1.908l-0.828,6.588h2.916v2.088h-3.133l-0.684,5.328h3.096v2.052h-3.348l-0.864,7.344h-1.944l0.9-7.344h-4.788l-0.864,7.344
		h-1.944L416.909,330.028z M423.856,327.976l0.685-5.328h-4.789l-0.648,5.328H423.856z"/>
</g>
<g>
	<path d="M238.51,379.301h8.928v19.98c0,1.296,0.306,2.226,0.918,2.79c0.612,0.564,1.445,0.846,2.502,0.846
		c0.959,0,2.063-0.275,3.312-0.828l0.756,2.232c-0.792,0.288-1.536,0.534-2.232,0.738c-0.696,0.204-1.524,0.306-2.484,0.306
		c-1.872,0-3.294-0.528-4.266-1.584c-0.972-1.056-1.458-2.628-1.458-4.716v-17.352h-5.976V379.301z"/>
	<path d="M260.109,400.396c0-0.984,0.234-1.841,0.702-2.574c0.468-0.732,1.211-1.362,2.232-1.89c1.02-0.528,2.333-0.959,3.942-1.296
		c1.607-0.336,3.54-0.6,5.796-0.792c-0.024-0.6-0.12-1.164-0.288-1.692s-0.432-0.99-0.792-1.386
		c-0.36-0.396-0.834-0.714-1.422-0.954c-0.588-0.24-1.302-0.36-2.142-0.36c-1.152,0-2.256,0.222-3.312,0.666
		c-1.056,0.444-1.992,0.918-2.808,1.422l-1.152-2.016c0.432-0.288,0.942-0.582,1.53-0.882c0.588-0.3,1.211-0.57,1.872-0.81
		c0.66-0.24,1.362-0.438,2.106-0.594c0.744-0.156,1.5-0.234,2.268-0.234c2.399,0,4.181,0.654,5.346,1.962
		c1.164,1.308,1.746,3.054,1.746,5.238v10.728h-2.412l-0.252-2.376h-0.108c-0.984,0.769-2.07,1.428-3.258,1.98
		c-1.188,0.552-2.406,0.828-3.654,0.828c-0.816,0-1.584-0.114-2.304-0.342c-0.72-0.228-1.35-0.552-1.89-0.972
		s-0.966-0.936-1.278-1.548C260.265,401.891,260.109,401.188,260.109,400.396z M262.989,400.181c0,0.504,0.108,0.93,0.324,1.278
		c0.216,0.348,0.498,0.636,0.846,0.864c0.348,0.228,0.756,0.396,1.224,0.504c0.468,0.108,0.954,0.162,1.458,0.162
		c1.008,0,1.998-0.222,2.97-0.666c0.972-0.444,1.962-1.086,2.97-1.926v-4.608c-1.872,0.144-3.438,0.348-4.698,0.612
		c-1.26,0.265-2.268,0.583-3.024,0.954c-0.756,0.373-1.291,0.792-1.602,1.26C263.145,399.083,262.989,399.604,262.989,400.181z"/>
	<path d="M281.385,408.137c0-0.696,0.246-1.38,0.738-2.052c0.492-0.672,1.206-1.284,2.142-1.836v-0.144
		c-0.48-0.264-0.9-0.624-1.26-1.08c-0.36-0.456-0.54-1.056-0.54-1.8c0-0.552,0.18-1.122,0.54-1.71
		c0.36-0.588,0.876-1.11,1.548-1.566v-0.144c-0.6-0.456-1.11-1.062-1.53-1.818c-0.42-0.756-0.63-1.662-0.63-2.718
		c0-0.959,0.186-1.824,0.558-2.592c0.372-0.768,0.87-1.422,1.494-1.962c0.624-0.54,1.35-0.96,2.178-1.26
		c0.828-0.3,1.71-0.45,2.646-0.45c0.959,0,1.824,0.144,2.592,0.432h7.236v2.268h-4.68c0.408,0.432,0.78,0.96,1.116,1.584
		c0.335,0.625,0.504,1.32,0.504,2.088c0,0.936-0.174,1.776-0.522,2.52c-0.348,0.744-0.828,1.375-1.44,1.89
		c-0.612,0.517-1.332,0.913-2.16,1.188c-0.828,0.276-1.71,0.414-2.646,0.414c-0.456,0-0.942-0.054-1.458-0.162
		c-0.517-0.108-1.014-0.27-1.494-0.486c-0.912,0.576-1.368,1.248-1.368,2.016c0,0.696,0.318,1.206,0.954,1.53
		c0.636,0.324,1.53,0.486,2.682,0.486h3.924c2.256,0,3.93,0.313,5.022,0.936c1.092,0.625,1.638,1.68,1.638,3.168
		c0,0.816-0.229,1.596-0.684,2.34c-0.456,0.744-1.104,1.392-1.944,1.944c-0.84,0.552-1.86,0.996-3.06,1.332
		c-1.2,0.336-2.544,0.504-4.032,0.504c-2.568,0-4.554-0.42-5.958-1.26C282.087,410.896,281.385,409.696,281.385,408.137z
		 M283.941,407.849c0,0.912,0.486,1.656,1.458,2.232s2.394,0.864,4.266,0.864c1.008,0,1.92-0.103,2.736-0.306
		c0.816-0.204,1.512-0.474,2.088-0.81c0.576-0.336,1.014-0.72,1.314-1.152c0.3-0.432,0.45-0.876,0.45-1.332
		c0-0.84-0.33-1.404-0.99-1.692c-0.661-0.288-1.663-0.432-3.006-0.432h-3.42c-0.504,0-0.978-0.018-1.422-0.054
		c-0.444-0.036-0.858-0.114-1.242-0.234c-0.84,0.456-1.422,0.93-1.746,1.422C284.103,406.846,283.941,407.345,283.941,407.849z
		 M289.269,397.409c1.128,0,2.082-0.372,2.862-1.116c0.78-0.744,1.17-1.751,1.17-3.024c0-0.6-0.108-1.152-0.324-1.656
		c-0.216-0.504-0.504-0.936-0.864-1.296c-0.36-0.36-0.786-0.642-1.278-0.846c-0.492-0.204-1.014-0.306-1.566-0.306
		c-0.552,0-1.074,0.103-1.566,0.306c-0.492,0.204-0.918,0.486-1.278,0.846c-0.36,0.36-0.648,0.792-0.864,1.296
		c-0.216,0.504-0.324,1.056-0.324,1.656c0,1.272,0.396,2.28,1.188,3.024C287.217,397.037,288.165,397.409,289.269,397.409z"/>
	<path d="M302.876,396.221c0-1.44,0.252-2.73,0.756-3.87c0.504-1.14,1.17-2.106,1.998-2.898c0.828-0.792,1.776-1.398,2.844-1.818
		c1.067-0.42,2.166-0.63,3.294-0.63c1.248,0,2.364,0.198,3.348,0.594c0.984,0.396,1.818,0.954,2.502,1.674
		c0.684,0.72,1.206,1.584,1.566,2.592c0.36,1.008,0.54,2.124,0.54,3.348c0,0.648-0.036,1.188-0.108,1.62h-13.68
		c0.12,1.896,0.786,3.396,1.998,4.5c1.211,1.104,2.778,1.656,4.698,1.656c1.031,0,1.974-0.144,2.826-0.432
		c0.852-0.288,1.686-0.684,2.502-1.188l1.044,1.944c-0.864,0.553-1.848,1.032-2.952,1.44c-1.104,0.408-2.364,0.612-3.78,0.612
		c-1.296,0-2.514-0.21-3.654-0.63c-1.14-0.419-2.136-1.02-2.988-1.8c-0.852-0.78-1.524-1.733-2.016-2.862
		C303.123,398.945,302.876,397.661,302.876,396.221z M316.989,394.889c0-1.8-0.457-3.174-1.368-4.122
		c-0.913-0.948-2.184-1.422-3.816-1.422c-0.72,0-1.41,0.126-2.07,0.378s-1.254,0.612-1.782,1.08
		c-0.528,0.468-0.978,1.044-1.35,1.728c-0.373,0.684-0.606,1.47-0.702,2.358H316.989z"/>
</g>
<line fill="none" stroke="#000000" stroke-width="3" stroke-miterlimit="10" x1="205.395" y1="278.029" x2="205.395" y2="300.168"/>
<line fill="none" stroke="#000000" stroke-width="3" stroke-miterlimit="10" x1="211.221" y1="278.029" x2="211.221" y2="300.168"/>
<line fill="none" stroke="#000000" stroke-width="3" stroke-miterlimit="10" x1="216.582" y1="278.029" x2="216.582" y2="300.168"/>
<line fill="none" stroke="#000000" stroke-width="3" stroke-miterlimit="10" x1="220.766" y1="285.847" x2="199.679" y2="292.589"/>
<g>
	<path d="M149.993,271.213c0.36,0,0.576,0.216,0.576,0.576v24.045c0,0.36-0.216,0.576-0.576,0.576h-2.843
		c-0.324,0-0.504-0.144-0.648-0.468l-6.768-13.75v13.642c0,0.36-0.18,0.576-0.576,0.576h-3.384c-0.36,0-0.576-0.216-0.576-0.576
		v-24.045c0-0.36,0.216-0.576,0.576-0.576h2.844c0.324,0,0.504,0.144,0.648,0.468l6.767,13.75v-13.643
		c0-0.36,0.18-0.576,0.576-0.576H149.993z"/>
	<path d="M167.849,271.213c0.396,0,0.72,0.324,0.72,0.72v19.293c0,3.384-1.799,5.184-5.183,5.184h-4.032
		c-3.383,0-5.183-1.8-5.183-5.184v-19.293c0-0.396,0.324-0.72,0.72-0.72h3.456c0.396,0,0.72,0.324,0.72,0.72v18.286
		c0,0.972,0.504,1.44,1.439,1.44h1.872c0.936,0,1.44-0.468,1.44-1.44v-18.286c0-0.396,0.324-0.72,0.72-0.72H167.849z"/>
	<path d="M191.968,271.213c0.468,0,0.72,0.252,0.72,0.72v23.757c0,0.468-0.252,0.72-0.72,0.72h-3.348c-0.468,0-0.72-0.252-0.72-0.72
		v-14.146h-0.252l-3.384,14.254c-0.108,0.396-0.36,0.612-0.792,0.612h-2.124c-0.432,0-0.684-0.216-0.792-0.612l-3.383-14.254h-0.252
		v14.146c0,0.468-0.252,0.72-0.72,0.72h-3.312c-0.468,0-0.72-0.252-0.72-0.72v-23.757c0-0.468,0.252-0.72,0.72-0.72h4.751
		c0.432,0,0.684,0.216,0.792,0.612l3.996,16.054l3.996-16.054c0.108-0.396,0.36-0.612,0.792-0.612H191.968z"/>
</g>
<g>
	<path d="M99.786,343.084h-3.383c-0.396,0-0.576,0.216-0.576,0.576v13.643l-6.767-13.75c-0.144-0.324-0.324-0.468-0.648-0.468
		h-2.844c-0.36,0-0.576,0.216-0.576,0.576v24.045c0,0.36,0.216,0.576,0.576,0.576h3.384c0.396,0,0.576-0.216,0.576-0.576v-13.642
		l6.768,13.75c0.144,0.324,0.324,0.468,0.648,0.468h2.843c0.36,0,0.576-0.216,0.576-0.576V343.66
		C100.362,343.3,100.146,343.084,99.786,343.084z"/>
	<path d="M117.642,343.084h-3.312c-0.396,0-0.72,0.324-0.72,0.72v18.286c0,0.972-0.504,1.44-1.44,1.44h-1.872
		c-0.936,0-1.439-0.468-1.439-1.44v-18.286c0-0.396-0.324-0.72-0.72-0.72h-3.456c-0.396,0-0.72,0.324-0.72,0.72v19.293
		c0,3.384,1.8,5.184,5.183,5.184h4.032c3.384,0,5.183-1.8,5.183-5.184v-19.293C118.362,343.408,118.038,343.084,117.642,343.084z"/>
	<path d="M125.945,343.084c-0.875,0-3.261,0-3.261,0c-0.468,0-0.72,0.252-0.72,0.72v23.757c0,0.468,0.252,0.72,0.72,0.72h3.312
		c0.401,0,0.632-0.195,0.693-0.542V343.88C126.688,343.88,126.688,343.084,125.945,343.084z"/>
	<path d="M141.614,343.084c-0.875,0-3.261,0-3.261,0c-0.468,0-0.72,0.252-0.72,0.72v23.757c0,0.468,0.252,0.72,0.72,0.72h3.312
		c0.401,0,0.632-0.195,0.693-0.542V343.88C142.358,343.88,142.358,343.084,141.614,343.084z"/>
	<path d="M134.063,343.084c-0.875,0-3.261,0-3.261,0c-0.468,0-0.72,0.252-0.72,0.72v23.757c0,0.468,0.252,0.72,0.72,0.72h3.312
		c0.401,0,0.632-0.195,0.693-0.542V343.88C134.807,343.88,134.807,343.084,134.063,343.084z"/>
	<path d="M144.303,359.05c0.147-0.862,0.549-3.215,0.549-3.215c0.078-0.461-0.127-0.752-0.588-0.831l-23.419-3.997
		c-0.461-0.079-0.752,0.127-0.83,0.588l-0.558,3.264c-0.067,0.395,0.086,0.656,0.417,0.774l23.519,4.014
		C143.393,359.649,144.177,359.783,144.303,359.05z"/>
</g>
<g>
	<path d="M85.043,327.082h1.506v10.617h5.208v1.289h-6.715V327.082z"/>
	<path d="M99.363,335.357h-4.338l-1.143,3.63h-1.542l4.029-11.905h1.706l4.029,11.905h-1.615L99.363,335.357z M98.981,334.141
		l-0.563-1.815c-0.218-0.665-0.424-1.328-0.617-1.987c-0.194-0.659-0.387-1.334-0.581-2.023h-0.073
		c-0.182,0.689-0.369,1.364-0.563,2.023c-0.194,0.66-0.399,1.322-0.617,1.987l-0.563,1.815H98.981z"/>
	<path d="M107.929,339.205c-0.787,0-1.51-0.139-2.169-0.417c-0.66-0.278-1.225-0.681-1.697-1.207
		c-0.472-0.526-0.841-1.173-1.107-1.942c-0.266-0.768-0.399-1.636-0.399-2.604c0-0.956,0.136-1.815,0.408-2.577
		c0.272-0.762,0.65-1.409,1.134-1.942c0.484-0.532,1.062-0.94,1.733-1.225c0.671-0.284,1.4-0.426,2.187-0.426
		c0.411,0,0.79,0.042,1.134,0.127c0.345,0.084,0.66,0.197,0.944,0.335c0.284,0.14,0.538,0.297,0.762,0.472
		c0.224,0.175,0.42,0.354,0.59,0.535l-0.835,0.98c-0.302-0.314-0.653-0.581-1.052-0.798c-0.399-0.218-0.902-0.327-1.506-0.327
		c-0.605,0-1.15,0.112-1.633,0.336c-0.484,0.224-0.896,0.544-1.234,0.961c-0.339,0.417-0.602,0.923-0.79,1.516
		s-0.281,1.258-0.281,1.996c0,0.75,0.088,1.425,0.263,2.024c0.175,0.599,0.429,1.11,0.762,1.533c0.333,0.424,0.744,0.75,1.234,0.98
		c0.49,0.23,1.055,0.345,1.697,0.345c0.423,0,0.826-0.063,1.207-0.191c0.381-0.127,0.692-0.299,0.935-0.517v-3.104h-2.523v-1.252
		h3.902v5.009c-0.388,0.399-0.896,0.729-1.525,0.989C109.441,339.074,108.727,339.205,107.929,339.205z"/>
	<path d="M113.717,327.082h6.86v1.27h-5.354v3.739h4.519v1.289h-4.519v4.319h5.535v1.289h-7.042V327.082z"/>
	<path d="M126.222,339.205c-0.835,0-1.609-0.157-2.323-0.472s-1.331-0.744-1.851-1.289l0.907-1.053
		c0.424,0.448,0.923,0.808,1.498,1.08c0.574,0.272,1.17,0.409,1.788,0.409c0.786,0,1.397-0.179,1.833-0.536
		c0.436-0.356,0.653-0.826,0.653-1.406c0-0.302-0.052-0.56-0.154-0.771c-0.103-0.211-0.242-0.393-0.417-0.544
		s-0.384-0.287-0.626-0.408c-0.242-0.121-0.502-0.248-0.78-0.381l-1.706-0.744c-0.278-0.121-0.563-0.266-0.853-0.436
		c-0.291-0.169-0.551-0.375-0.78-0.617c-0.23-0.242-0.417-0.529-0.563-0.862c-0.145-0.333-0.218-0.717-0.218-1.152
		c0-0.448,0.094-0.865,0.282-1.252c0.187-0.387,0.447-0.723,0.78-1.007c0.333-0.284,0.726-0.505,1.18-0.662s0.953-0.236,1.497-0.236
		c0.714,0,1.373,0.136,1.978,0.408c0.605,0.272,1.119,0.626,1.543,1.062l-0.817,0.98c-0.363-0.351-0.765-0.626-1.207-0.826
		c-0.441-0.2-0.94-0.299-1.497-0.299c-0.666,0-1.201,0.154-1.606,0.463c-0.406,0.309-0.608,0.735-0.608,1.279
		c0,0.291,0.057,0.536,0.172,0.735c0.115,0.2,0.269,0.375,0.462,0.526c0.194,0.151,0.405,0.285,0.635,0.399
		c0.23,0.115,0.466,0.221,0.708,0.317l1.688,0.726c0.338,0.145,0.659,0.312,0.961,0.499c0.303,0.188,0.563,0.406,0.781,0.653
		c0.218,0.248,0.39,0.539,0.517,0.871c0.127,0.333,0.19,0.717,0.19,1.153c0,0.472-0.094,0.914-0.281,1.325
		c-0.188,0.412-0.457,0.771-0.808,1.08s-0.774,0.551-1.271,0.726S126.851,339.205,126.222,339.205z"/>
	<path d="M137.002,339.205c-0.75,0-1.437-0.145-2.06-0.436s-1.159-0.705-1.606-1.243c-0.448-0.538-0.796-1.191-1.043-1.96
		c-0.248-0.768-0.372-1.63-0.372-2.586c0-0.956,0.124-1.812,0.372-2.568c0.248-0.756,0.596-1.397,1.043-1.924
		c0.447-0.526,0.983-0.928,1.606-1.207c0.623-0.278,1.31-0.417,2.06-0.417c0.75,0,1.437,0.142,2.06,0.426
		c0.623,0.285,1.162,0.689,1.615,1.216c0.454,0.526,0.805,1.168,1.053,1.924c0.248,0.756,0.372,1.606,0.372,2.55
		c0,0.956-0.124,1.818-0.372,2.586c-0.248,0.769-0.599,1.422-1.053,1.96c-0.454,0.539-0.992,0.953-1.615,1.243
		S137.752,339.205,137.002,339.205z M137.002,337.88c0.532,0,1.013-0.115,1.443-0.345c0.429-0.23,0.798-0.56,1.107-0.989
		c0.309-0.429,0.547-0.944,0.717-1.542c0.169-0.599,0.254-1.273,0.254-2.024c0-0.738-0.084-1.403-0.254-1.996
		s-0.408-1.095-0.717-1.506c-0.309-0.411-0.678-0.729-1.107-0.953c-0.43-0.224-0.911-0.336-1.443-0.336
		c-0.533,0-1.014,0.112-1.443,0.336c-0.43,0.224-0.798,0.542-1.107,0.953c-0.309,0.412-0.548,0.914-0.717,1.506
		c-0.17,0.593-0.254,1.258-0.254,1.996c0,0.75,0.084,1.425,0.254,2.024c0.169,0.599,0.408,1.113,0.717,1.542
		c0.309,0.43,0.677,0.759,1.107,0.989C135.988,337.765,136.469,337.88,137.002,337.88z"/>
</g>
<g>
	<path d="M81.65,382.782h-9.535c-1.116,0-1.624,0.608-1.624,1.622v38.446l-19.07-38.75c-0.406-0.912-0.912-1.318-1.826-1.318h-8.014
		c-1.014,0-1.622,0.608-1.622,1.622v67.76c0,1.015,0.608,1.624,1.622,1.624h9.536c1.116,0,1.622-0.608,1.622-1.624V413.72
		l19.071,38.75c0.405,0.913,0.913,1.318,1.826,1.318h8.013c1.015,0,1.624-0.608,1.624-1.624v-67.76
		C83.273,383.39,82.665,382.782,81.65,382.782z"/>
	<path d="M131.969,382.782h-9.332c-1.116,0-2.028,0.912-2.028,2.028v51.53c0,2.74-1.421,4.058-4.058,4.058h-5.276
		c-2.636,0-4.056-1.318-4.056-4.058v-51.53c0-1.116-0.914-2.028-2.03-2.028h-9.738c-1.116,0-2.028,0.912-2.028,2.028v54.37
		c0,9.536,5.072,14.608,14.606,14.608h11.361c9.536,0,14.606-5.072,14.606-14.608v-54.37
		C133.997,383.694,133.085,382.782,131.969,382.782z"/>
	<path d="M155.367,382.782c-2.465,0-9.19,0-9.19,0c-1.318,0-2.028,0.71-2.028,2.028v66.95c0,1.318,0.71,2.028,2.028,2.028h9.332
		c1.129,0,1.78-0.549,1.954-1.526v-67.237C157.462,385.025,157.462,382.782,155.367,382.782z"/>
	<path d="M199.524,382.782c-2.464,0-9.19,0-9.19,0c-1.318,0-2.028,0.71-2.028,2.028v66.95c0,1.318,0.71,2.028,2.028,2.028h9.332
		c1.13,0,1.781-0.549,1.954-1.526v-67.237C201.62,385.025,201.62,382.782,199.524,382.782z"/>
	<path d="M178.245,382.782c-2.464,0-9.19,0-9.19,0c-1.318,0-2.028,0.71-2.028,2.028v66.95c0,1.318,0.71,2.028,2.028,2.028h9.332
		c1.129,0,1.78-0.549,1.954-1.526v-67.237C180.341,385.025,180.341,382.782,178.245,382.782z"/>
	<path d="M207.1,427.775c0.414-2.43,1.547-9.06,1.547-9.06c0.22-1.299-0.359-2.119-1.658-2.34l-65.996-11.263
		c-1.299-0.223-2.121,0.358-2.339,1.658l-1.571,9.198c-0.19,1.113,0.242,1.848,1.177,2.183l66.276,11.312
		C204.535,429.463,206.747,429.84,207.1,427.775z"/>
</g>
</svg>
