<?xml version="1.0" encoding="utf-8"?>
<!-- Generator: Adobe Illustrator 15.0.0, SVG Export Plug-In . SVG Version: 6.00 Build 0)  -->
<!DOCTYPE svg PUBLIC "-//W3C//DTD SVG 1.1//EN" "http://www.w3.org/Graphics/SVG/1.1/DTD/svg11.dtd">
<svg version="1.1" id="Ebene_1" xmlns="http://www.w3.org/2000/svg" xmlns:xlink="http://www.w3.org/1999/xlink" x="0px" y="0px"
	 width="841.89px" height="1190.55px" viewBox="0 0 841.89 1190.55" enable-background="new 0 0 841.89 1190.55"
	 xml:space="preserve">
<text transform="matrix(1 0 0 1 302.9341 304.3721)"><tspan x="0" y="0" font-family="'SourceCodePro-Bold'" font-size="36">LAGESO</tspan><tspan x="0" y="33" font-family="'SourceCodePro-Regular'" font-size="36">NUM###</tspan></text>
<text transform="matrix(1 0 0 1 235.5938 404.9326)" font-family="'SourceCodePro-Regular'" font-size="36">lage</text>
<line fill="none" stroke="#000000" stroke-width="3" stroke-miterlimit="10" x1="205.395" y1="278.029" x2="205.395" y2="300.168"/>
<line fill="none" stroke="#000000" stroke-width="3" stroke-miterlimit="10" x1="211.221" y1="278.029" x2="211.221" y2="300.168"/>
<line fill="none" stroke="#000000" stroke-width="3" stroke-miterlimit="10" x1="216.582" y1="278.029" x2="216.582" y2="300.168"/>
<line fill="none" stroke="#000000" stroke-width="3" stroke-miterlimit="10" x1="220.766" y1="285.847" x2="199.679" y2="292.589"/>
<text transform="matrix(1 0 0 1 133.3994 296.4097)" font-family="'Norwester-Regular'" font-size="36">num</text>
<g>
	<path d="M99.786,343.084h-3.383c-0.396,0-0.576,0.216-0.576,0.576v13.643l-6.767-13.75c-0.144-0.324-0.324-0.468-0.648-0.468
		h-2.844c-0.36,0-0.576,0.216-0.576,0.576v24.045c0,0.36,0.216,0.576,0.576,0.576h3.384c0.396,0,0.576-0.216,0.576-0.576v-13.642
		l6.768,13.75c0.144,0.324,0.324,0.468,0.648,0.468h2.843c0.36,0,0.576-0.216,0.576-0.576V343.66
		C100.362,343.3,100.146,343.084,99.786,343.084z"/>
	<path d="M117.642,343.084h-3.312c-0.396,0-0.72,0.324-0.72,0.72v18.286c0,0.972-0.504,1.44-1.44,1.44h-1.872
		c-0.936,0-1.439-0.468-1.439-1.44v-18.286c0-0.396-0.324-0.72-0.72-0.72h-3.456c-0.396,0-0.72,0.324-0.72,0.72v19.293
		c0,3.384,1.8,5.184,5.183,5.184h4.032c3.384,0,5.183-1.8,5.183-5.184v-19.293C118.362,343.408,118.038,343.084,117.642,343.084z"/>
	<path d="M125.945,343.084c-0.875,0-3.261,0-3.261,0c-0.468,0-0.72,0.252-0.72,0.72v23.757c0,0.468,0.252,0.72,0.72,0.72h3.312
		c0.401,0,0.632-0.195,0.693-0.542V343.88C126.688,343.88,126.688,343.084,125.945,343.084z"/>
	<path d="M141.614,343.084c-0.875,0-3.261,0-3.261,0c-0.468,0-0.72,0.252-0.72,0.72v23.757c0,0.468,0.252,0.72,0.72,0.72h3.312
		c0.401,0,0.632-0.195,0.693-0.542V343.88C142.358,343.88,142.358,343.084,141.614,343.084z"/>
	<path d="M134.063,343.084c-0.875,0-3.261,0-3.261,0c-0.468,0-0.72,0.252-0.72,0.72v23.757c0,0.468,0.252,0.72,0.72,0.72h3.312
		c0.401,0,0.632-0.195,0.693-0.542V343.88C134.807,343.88,134.807,343.084,134.063,343.084z"/>
	<path d="M144.303,359.05c0.147-0.862,0.549-3.215,0.549-3.215c0.078-0.461-0.127-0.752-0.588-0.831l-23.419-3.997
		c-0.461-0.079-0.752,0.127-0.83,0.588l-0.558,3.264c-0.067,0.395,0.086,0.656,0.417,0.774l23.519,4.014
		C143.393,359.649,144.177,359.783,144.303,359.05z"/>
</g>
<text transform="matrix(1 0 0 1 83.4102 338.9868)"><tspan x="0" y="0" font-family="'SourceSansPro-Regular'" font-size="18.1486">L</tspan><tspan x="8.82" y="0" font-family="'SourceSansPro-Regular'" font-size="18.1486">A</tspan><tspan x="18.148" y="0" font-family="'SourceSansPro-Regular'" font-size="18.1486">G</tspan><tspan x="28.62" y="0" font-family="'SourceSansPro-Regular'" font-size="18.1486">E</tspan><tspan x="37.821" y="0" font-family="'SourceSansPro-Regular'" font-size="18.1486">SO</tspan></text>
<g>
	<path d="M81.65,382.782h-9.535c-1.116,0-1.624,0.608-1.624,1.622v38.446l-19.07-38.75c-0.406-0.912-0.912-1.318-1.826-1.318h-8.014
		c-1.014,0-1.622,0.608-1.622,1.622v67.76c0,1.015,0.608,1.624,1.622,1.624h9.536c1.116,0,1.622-0.608,1.622-1.624V413.72
		l19.071,38.75c0.405,0.913,0.913,1.318,1.826,1.318h8.013c1.015,0,1.624-0.608,1.624-1.624v-67.76
		C83.273,383.39,82.665,382.782,81.65,382.782z"/>
	<path d="M131.969,382.782h-9.332c-1.116,0-2.028,0.912-2.028,2.028v51.53c0,2.74-1.421,4.058-4.058,4.058h-5.276
		c-2.636,0-4.056-1.318-4.056-4.058v-51.53c0-1.116-0.914-2.028-2.03-2.028h-9.738c-1.116,0-2.028,0.912-2.028,2.028v54.37
		c0,9.536,5.072,14.608,14.606,14.608h11.361c9.536,0,14.606-5.072,14.606-14.608v-54.37
		C133.997,383.694,133.085,382.782,131.969,382.782z"/>
	<path d="M155.367,382.782c-2.465,0-9.19,0-9.19,0c-1.318,0-2.028,0.71-2.028,2.028v66.95c0,1.318,0.71,2.028,2.028,2.028h9.332
		c1.129,0,1.78-0.549,1.954-1.526v-67.237C157.462,385.025,157.462,382.782,155.367,382.782z"/>
	<path d="M199.524,382.782c-2.464,0-9.19,0-9.19,0c-1.318,0-2.028,0.71-2.028,2.028v66.95c0,1.318,0.71,2.028,2.028,2.028h9.332
		c1.13,0,1.781-0.549,1.954-1.526v-67.237C201.62,385.025,201.62,382.782,199.524,382.782z"/>
	<path d="M178.245,382.782c-2.464,0-9.19,0-9.19,0c-1.318,0-2.028,0.71-2.028,2.028v66.95c0,1.318,0.71,2.028,2.028,2.028h9.332
		c1.129,0,1.78-0.549,1.954-1.526v-67.237C180.341,385.025,180.341,382.782,178.245,382.782z"/>
	<path d="M207.1,427.775c0.414-2.43,1.547-9.06,1.547-9.06c0.22-1.299-0.359-2.119-1.658-2.34l-65.996-11.263
		c-1.299-0.223-2.121,0.358-2.339,1.658l-1.571,9.198c-0.19,1.113,0.242,1.848,1.177,2.183l66.276,11.312
		C204.535,429.463,206.747,429.84,207.1,427.775z"/>
</g>
</svg>
